PathFileType	4	(X/Y/Z)	./resultDataOpenSim/trcMotMarkerGrf/sub10/qtm-01-08.trc
DataRate	CameraRate	NumFrames	NumMarkers	Units	OrigDataRate	OrigDataStartFrame	OrigNumFrames
250.000000	250.000000	10	24	m	250.000000	55	435
Frame#	Time	L.Toe.Tip			R.Toe.Tip			L.Ankle.Lat			R.Ankle.Lat			L.Ankle.Med			R.Ankle.Med			L.Heel			R.Heel			L.Knee.Lat			R.Knee.Lat			L.Knee.Med			R.Knee.Med			L.Thigh.Upper			R.Thigh.Upper			L.ASIS			R.ASIS			V.Sacral			L.Acromium			R.Acromium			C7			L.Elbow			R.Elbow			L.Wrist.Lat			R.Wrist.Lat
		X1	Y1	Z1	X2	Y2	Z2	X3	Y3	Z3	X4	Y4	Z4	X5	Y5	Z5	X6	Y6	Z6	X7	Y7	Z7	X8	Y8	Z8	X9	Y9	Z9	X10	Y10	Z10	X11	Y11	Z11	X12	Y12	Z12	X13	Y13	Z13	X14	Y14	Z14	X15	Y15	Z15	X16	Y16	Z16	X17	Y17	Z17	X18	Y18	Z18	X19	Y19	Z19	X20	Y20	Z20	X21	Y21	Z21	X22	Y22	Z22	X23	Y23	Z23	X24	Y24	Z24

55	0.216	-1.4626831	0.066158266	-0.21071157	-0.77684323	0.038812787	-0.090657129	-1.4568972	0.19882961	-0.25615079	-0.91248056	0.050563847	-0.04680434	-1.4331671	0.19630149	-0.17622663	-0.89977414	0.082652679	-0.13060729	-1.4984916	0.25063976	-0.21009442	-0.96862774	0.028566112	-0.094289017	-1.1485968	0.41702662	-0.28075314	-0.90419399	0.44823398	0.0059780674	-1.1288157	0.37486772	-0.16738496	-0.90799577	0.46129558	-0.12206208	-1.072177	0.79094807	-0.29913584	-0.99807724	0.85665058	0.079901163	-0.99494462	0.89575722	-0.24512819	-0.95325392	0.93446183	-0.010457053	-1.1719641	0.9382545	-0.094553862	-1.0233919	1.3908065	-0.28007337	-1.0585868	1.3854017	0.046004654	-1.1272997	1.415559	-0.12835274	-1.0852943	1.0465909	-0.33581125	-1.2035411	1.0797536	0.085137306	-0.88293143	0.89923114	-0.30429322	-1.1870643	0.85511483	0.17214596
56	0.22	-1.4503199	0.067895006	-0.2120641	-0.77679499	0.038758575	-0.090722806	-1.445657	0.20102524	-0.25651304	-0.91255761	0.050558346	-0.046695253	-1.422782	0.19810341	-0.17621886	-0.89960846	0.082742325	-0.13054654	-1.4872233	0.25275244	-0.2116286	-0.96868176	0.028552287	-0.09422986	-1.1360005	0.41682981	-0.28102002	-0.90179583	0.44833291	0.0064206002	-1.11696	0.37550501	-0.16715223	-0.90612814	0.46121107	-0.12162596	-1.064856	0.79171438	-0.29888205	-0.99333914	0.85721049	0.080152306	-0.98861505	0.89718432	-0.24504168	-0.94728857	0.9349698	-0.010084605	-1.1657642	0.93888706	-0.094615439	-1.0170231	1.3919119	-0.27996514	-1.0520848	1.3864259	0.046269665	-1.1209068	1.4169043	-0.12759224	-1.0803926	1.0480206	-0.33551557	-1.1951337	1.0796018	0.085969518	-0.87935676	0.89886906	-0.30476311	-1.1769947	0.85501326	0.17233443
57	0.224	-1.4373935	0.06934892	-0.21324149	-0.7767674	0.038713814	-0.090773988	-1.434154	0.20298344	-0.25681175	-0.91265394	0.050561176	-0.046571612	-1.4115906	0.19997215	-0.17639052	-0.89947067	0.082844553	-0.13047015	-1.476095	0.2543143	-0.21252823	-0.96874371	0.02853796	-0.094165547	-1.1233252	0.41682768	-0.28119001	-0.89963469	0.44848847	0.0068784126	-1.1051358	0.37626717	-0.1668579	-0.90431384	0.46117873	-0.12116442	-1.0575846	0.792551	-0.29856195	-0.98871698	0.85773315	0.080356668	-0.9820126	0.89882176	-0.24484475	-0.94126429	0.93553938	-0.009651182	-1.1596869	0.93954795	-0.09481066	-1.0106668	1.3930447	-0.27986447	-1.0455956	1.3874844	0.046536275	-1.1145901	1.4182559	-0.12721556	-1.0754696	1.0494623	-0.33518314	-1.1865549	1.0795195	0.086882787	-0.87582956	0.89851883	-0.30524366	-1.166795	0.85495569	0.172483
58	0.228	-1.423685	0.070688481	-0.21445732	-0.77676357	0.03868072	-0.09080276	-1.422391	0.20471525	-0.25704851	-0.91276675	0.050571338	-0.046443233	-1.3992203	0.20196873	-0.17688824	-0.8993611	0.082955131	-0.13037835	-1.4651713	0.25535422	-0.21289804	-0.96880985	0.028522262	-0.094100651	-1.1106578	0.41702427	-0.28125098	-0.89770777	0.44866613	0.007346609	-1.0931157	0.3771452	-0.16658746	-0.90247448	0.46120285	-0.12072147	-1.0503454	0.79347153	-0.29815279	-0.98421923	0.85823537	0.080520655	-0.9752561	0.90060411	-0.24459735	-0.93529688	0.93616729	-0.0091709314	-1.1537617	0.94025037	-0.095144897	-1.0043108	1.3942104	-0.27975123	-1.0390879	1.3885641	0.046795413	-1.1083212	1.4196117	-0.12699737	-1.0705807	1.0509544	-0.33493257	-1.177994	1.0795769	0.087868054	-0.87239004	0.89818491	-0.3057352	-1.1565514	0.85493914	0.17256086
59	0.232	-1.4093192	0.071927367	-0.21575846	-0.77678819	0.03866038	-0.090806216	-1.4103907	0.206271	-0.25724264	-0.91288528	0.050583716	-0.04631993	-1.3861057	0.20395963	-0.17756253	-0.89928619	0.083068388	-0.13027088	-1.45435	0.25598349	-0.21301515	-0.96887777	0.028504749	-0.094037659	-1.0980588	0.41741868	-0.28121596	-0.89597937	0.4488233	0.0078430194	-1.0805256	0.37817763	-0.16647306	-0.90060388	0.46127479	-0.12031872	-1.0431652	0.79447796	-0.29768512	-0.97980766	0.85874045	0.080667299	-0.96866097	0.90243322	-0.24444092	-0.92953035	0.93683611	-0.0086700083	-1.1479725	0.94101156	-0.095605067	-0.99793845	1.3954105	-0.27960348	-1.0325902	1.3896802	0.047049694	-1.1020825	1.4209776	-0.12679283	-1.065754	1.0525082	-0.33480902	-1.169705	1.0797666	0.088864673	-0.8690593	0.89786895	-0.30624026	-1.1462936	0.85495945	0.17256322
60	0.236	-1.3944945	0.073007591	-0.21712252	-0.77684149	0.038651759	-0.090781776	-1.3981725	0.20769052	-0.25742801	-0.9130016	0.050589851	-0.046207064	-1.3729468	0.20575344	-0.17816868	-0.89925406	0.083177945	-0.13014469	-1.4434156	0.25627596	-0.21295668	-0.96894561	0.028486415	-0.093977892	-1.0855095	0.41800587	-0.28112166	-0.89433836	0.44894107	0.0083643693	-1.0671772	0.37940798	-0.16659237	-0.89877372	0.46138008	-0.11993797	-1.0361181	0.79556198	-0.29726223	-0.97543938	0.85925466	0.080802195	-0.96245865	0.9042369	-0.24447333	-0.92398886	0.93753975	-0.0081450736	-1.1422877	0.94184782	-0.096179069	-0.99156409	1.3966424	-0.27941264	-1.0261346	1.3908538	0.047302414	-1.0958688	1.4223548	-0.12655778	-1.0609738	1.0541132	-0.33476501	-1.1618015	1.0800552	0.089836469	-0.86583778	0.89756705	-0.30676165	-1.1358538	0.85502899	0.172565
61	0.24	-1.379324	0.07388662	-0.21851943	-0.77691841	0.038652934	-0.090726163	-1.3857187	0.20894963	-0.2576191	-0.913116	0.050583454	-0.046106015	-1.3601451	0.20721405	-0.1785679	-0.89927255	0.083277821	-0.12999681	-1.4321668	0.25626264	-0.21269675	-0.96901111	0.028468753	-0.093924177	-1.0729534	0.41877002	-0.28099597	-0.89263434	0.44902495	0.0088873807	-1.0535618	0.38078557	-0.16679092	-0.89704193	0.46149932	-0.11954474	-1.029272	0.79672143	-0.29698887	-0.97110235	0.85976283	0.080912561	-0.95661358	0.90600334	-0.24467222	-0.91856326	0.93828798	-0.0075606489	-1.1366726	0.94277068	-0.096853066	-0.98523807	1.3978969	-0.27919008	-1.0197269	1.3920858	0.047550812	-1.0896812	1.4237418	-0.12630374	-1.0562095	1.0557573	-0.33472483	-1.1541564	1.080414	0.090795984	-0.86271267	0.89727622	-0.30729514	-1.1249578	0.85516924	0.17266905
62	0.244	-1.3638612	0.074558547	-0.21993771	-0.77701509	0.038662728	-0.090637898	-1.3729904	0.20996044	-0.2577939	-0.91323251	0.050565087	-0.046016932	-1.3477597	0.20824382	-0.1787344	-0.89934827	0.083364225	-0.12982797	-1.4205403	0.2559651	-0.21229901	-0.96907251	0.028452355	-0.093880145	-1.0603593	0.41967986	-0.28083661	-0.89086066	0.44908065	0.0094017332	-1.0406391	0.38215659	-0.16671934	-0.89541841	0.46161551	-0.11911399	-1.0226378	0.79796053	-0.29688263	-0.96680816	0.86025854	0.080984325	-0.95092547	0.90775358	-0.24494436	-0.91311148	0.93909512	-0.0068753494	-1.1310883	0.94378439	-0.097600157	-0.97900098	1.3991685	-0.27895878	-1.0133682	1.3933639	0.047792138	-1.0835195	1.4251344	-0.12604884	-1.0514445	1.0574316	-0.33465002	-1.1464911	1.0807881	0.091727116	-0.85966723	0.89699944	-0.3078289	-1.1135782	0.8553882	0.17287435
63	0.248	-1.3481346	0.07503997	-0.22140312	-0.77713443	0.038680842	-0.090519219	-1.3599929	0.21062716	-0.25792857	-0.91335319	0.050538615	-0.045939596	-1.3354909	0.20880684	-0.1787552	-0.89947847	0.08343888	-0.12964415	-1.4086139	0.25539933	-0.21188215	-0.96913023	0.028437082	-0.093848338	-1.0477395	0.4207003	-0.28063165	-0.88921306	0.44909604	0.0099129674	-1.0288051	0.38342294	-0.16618601	-0.89390521	0.46172562	-0.11864852	-1.0161539	0.79928338	-0.29687353	-0.96257494	0.86075225	0.08100771	-0.94522021	0.909505	-0.24521047	-0.90755874	0.93996711	-0.0060662555	-1.1255028	0.94488528	-0.098384411	-0.97285585	1.4004612	-0.2787332	-1.0070562	1.3946756	0.048024951	-1.077382	1.4265259	-0.12579569	-1.0466808	1.0591306	-0.33455099	-1.1385194	1.0810874	0.092519522	-0.85669807	0.89674349	-0.30835655	-1.1020725	0.85567142	0.17304388
64	0.252	-1.3321352	0.075360171	-0.22295132	-0.77728092	0.038707084	-0.090377562	-1.3467873	0.21090717	-0.25802854	-0.91347803	0.050507106	-0.045873761	-1.3227632	0.20897536	-0.17880778	-0.89964276	0.083508741	-0.12945679	-1.39648	0.25456772	-0.21150531	-0.96918619	0.028423075	-0.093829596	-1.0351297	0.42180944	-0.28038189	-0.88790731	0.44905993	0.010411506	-1.0175323	0.38464836	-0.16535436	-0.89251868	0.46183558	-0.11817651	-1.0097064	0.80069659	-0.29687262	-0.958406	0.86125358	0.08099135	-0.93943937	0.91126002	-0.24544356	-0.90202582	0.94089169	-0.0051733687	-1.1199066	0.9460648	-0.099174677	-0.96678428	1.401779	-0.27851001	-1.0007832	1.3960131	0.048246378	-1.0712672	1.4279175	-0.12553941	-1.0419281	1.0608552	-0.33445669	-1.1300939	1.0812446	0.093039205	-0.85382912	0.8965121	-0.30889105	-1.090805	0.85600013	0.17304748
